<svg height="512" viewBox="0 0 512 512" width="512" xmlns="http://www.w3.org/2000/svg"><g><g><circle cx="264" cy="440" fill="#00a8e7" r="16"/><path d="m296 248v56l24-8 24 24 24-8 8 8-32 40-32-24-40 16-48-24v-80z" fill="#35495e"/><path d="m272 352-8 24v39h-48v-16l16-8v-23l8-32z" fill="#e5ab05"/><path d="m360 496a56 56 0 1 1 56-56 56.064 56.064 0 0 1 -56 56zm0-96a40 40 0 1 0 40 40 40.045 40.045 0 0 0 -40-40z" fill="#333"/><path d="m128 488a56 56 0 1 1 56-56 56.064 56.064 0 0 1 -56 56zm0-96a40 40 0 1 0 40 40 40.045 40.045 0 0 0 -40-40z" fill="#333"/><path d="m232 391-16 8v16h48v-39h-32z" fill="#dff1fc"/><path d="m364.438 433.344-63.881-42.587 17.1-17.1-11.314-11.314-20.5 20.5-109.5-36.5 6.921-15a8 8 0 1 0 -14.528-6.706l-48 104a8 8 0 1 0 14.528 6.706l26.144-56.648 98.038 67.873a8 8 0 0 0 4.554 1.432h96a8 8 0 0 0 4.438-14.656zm-192.385-71.56 104.667 34.888-15.75 31.5-90.712-62.8zm104.891 70.216 14.156-28.317 42.478 28.317z" fill="#e22526"/><path d="m320 376h-24a8 8 0 0 1 0-16h24a8 8 0 0 1 0 16z" fill="#35495e"/><g><path d="m320 296-24 8v-8h-72v32l48 24 40-16 4 3 20.889-26.111z" fill="#fcc200"/><path d="m376 320-8-8-24 8-7.111-7.111-20.889 26.111 28 21z" fill="#dff1fc"/></g><path d="m256 240-16 32-72 24-8 16 8 16h24v-16l72-8 32-32v-32z" fill="#fad6c6"/><g><path d="m168 296-8 16 8 16h24v-16l30.109-3.345-4.846-29.076z" fill="#dff1fc"/><path d="m296 272v-32h-40l-16 32-22.737 7.579 4.846 29.076 41.891-4.655z" fill="#00a8e7"/></g><path d="m199 280v-24l121-24z" fill="#be202e"/><circle cx="256" cy="160" fill="#fad6c6" r="104"/><path d="m264 160a8 8 0 0 1 -8-8v-8a8 8 0 0 1 16 0v8a8 8 0 0 1 -8 8z" fill="#683b11"/><path d="m320 136a8 8 0 0 1 -8-8v-8a8 8 0 0 1 16 0v8a8 8 0 0 1 -8 8z" fill="#683b11"/><path d="m297.019 170.131a28.1 28.1 0 0 1 -12.6-2.976 8 8 0 0 1 7.156-14.31 12.283 12.283 0 0 0 15.689-4.167 8 8 0 1 1 13.312 8.875 28.3 28.3 0 0 1 -23.557 12.578z" fill="#f99c78"/><path d="m344.494 80.474-144.4 63.1-.2 32 55.85 24.348 120.2-31.254.149-24 16.049-7.9 31.8 32.2-16.2 31.9-208.488 78.707.149-24-23.9-16.148c-23.9-16.149-31.7-48.2-31.7-48.2l-32-.2s-1.054-99.174 72.844-135.55c96.296-47.399 159.847 24.997 159.847 24.997z" fill="#e22526"/><path d="m200 144-32-8 40-24 32-56-48-24 16-8h168l-64 32-56 64z" fill="#fcc200"/><g fill="#be202e"><path d="m112 191h32l48 1-48-16z"/><path d="m424 169-152 39 136-7z"/><path d="m344 80-88 40 56-64z"/></g><circle cx="256" cy="184" fill="#f78663" r="16"/><circle cx="344" cy="152" fill="#f78663" r="16"/></g><path d="m304 248.571c.028-.035 103.872-39.932 106.811-41.081a9.835 9.835 0 0 0 2.566-1.567c4.65-8.092 24.569-40.118 15.83-44.029-8.556-7.912-29.622-31.011-34.341-33.364-6.565-1.672-6.444 1-14.966 4.575-17.532 5.85-10.619 16.457-11.9 28.75l-.028.007a111.746 111.746 0 0 0 -25.122-72.6c19.841-7.858 4.4-18.746-14.27-32.612 3.36-2.485 53.357-24.874 54.316-28.6 6.17-16.833-16.429-11.081-22.785-12.057h-152.061c-10.065 2.61-40.209 15.47-13.164 26.387-66.686 24.125-89.931 94.328-90.886 149.42-1.079 12.885 25.086 6.971 34.107 8.2 11.459 32.567 27.553 43.575 53.9 60.281v19.286c-4.3 2.026-28.042 7.865-30.315 11.522-13.945 21.611-10.173 26.822 2.308 43.824l-20.04 43.417c-68.8-17.084-99.289 73.184-40.97 103.769 66.658 29.53 111.658-59 55.487-97.043l2.931-6.351 46.592 32.256c-1.5 13.78 9.166 12.078 17.39 12.039l8.441 5.844c-13.224 44.741 49.369 60.356 61.328 19.156h9.422c10.707 60.474 89.987 63.508 108.559 9.681 18.15-60.8-55.848-98.013-94.792-55.064l-17.791-11.86 14.756-14.757c10.241 1.883 17.211-7.566 9.16-14.634-9.771-4.382-51.755-2.938-31.273 14.12l-7.361 7.361-13.839-4.613c-.543-.818 6.307-19.119 6.416-20.184l32.384-12.95c9.863 5.446 32.884 31.411 39.809 19.451 5.267-6.933 30.848-37.944 32.56-40.99 2.5-6.591-.838-8.378-6.693-14.4-6.617-10.868-21.839.047-30.312 1.688-24.891-23.978-19.305-26.569-42.164-17.949zm-136 183.429c-.765 38.659-46.787 52.622-69.893 26.551-26.256-30.455 2.193-73.988 39.05-65.481l-19.421 42.577 14.528 6.706 19.415-42.566a39.963 39.963 0 0 1 16.321 32.213zm184-272c0 2.068-.071 4.13-.2 6.175l-95.19 25.383-48.61-20.833v-21.525l53.961-23.983.06.052.111-.128 65.462-29.094a95.3 95.3 0 0 1 24.406 63.953zm-64.8-63.508 26.57-30.365a134.192 134.192 0 0 1 15.962 11.463zm54.911-64.492c-2.821 1.7-38.118 18.322-36.267 18.887l-53.433 61.066-53.143 23.618-10.591-2.648c5.646-3.856 25.411-14.018 26.328-17.056 1.5-2.629 31.131-54.477 31.171-54.548l-6.876-3.927 6.875 3.921c11.08-13.529-30.805-24.1-36.291-29.313zm-161.673 201.344c-47.131-40.044-6.538-52.444-60.169-49.344 4.961-68.175 35.92-115.828 94.7-131.571l13.891 6.945-26.768 46.842c-28.691 19.139-73.469 32.43-10.091 44.03.61 11.788-2.78 32.227 5.527 33.4 26.305 10.085 58.017 28.626 64.958 22.907l114.162-30.443c10.5-1.384 6.717-15.145 7.353-27.163l6.42-3.21 23.846 23.846-12.034 24.067-194.233 74.702c3.878-23.529-14.973-24.144-27.562-35.008zm-6.764 69.2c33.1-12.687 76.035-19.79 76.665-33.332l37.661-14.487v13.962l-27.672 27.671c-.03.008-42.457 4.715-60.927 6.77-10.461.616-17 1.2-15.4 16.872h-11.057l-4-8zm7.445 33.456c18.248 1.126 19.49-2.151 18.881-16.841l16-1.777c-1.448 18.641 3.244 16.783 14.682 22.9l-5.582 22.318-48.76-16.254zm82 87.878-2.147 4.294-3.948-2.733a16.04 16.04 0 0 1 6.093-1.561zm14.317 7.142c.212.317.4.648.6.98h-1.086zm-21.436-24.02h-25.612l-5.242-3.629c12.838-5.827 15.879-7.281 14.854-18.938l16 5.333zm-83.947-45.216 51.947 17.316v6.957c-2.824 1.614-11.433 5.24-13.518 7.163l-40.224-27.847zm91.947 94.383c-8.986-.013-16.979-8.03-16.095-17.579 14.209 11.662 18.166 9.412 30.125 9.412a16.168 16.168 0 0 1 -14.03 8.167zm69.578-24.167h-12.773a39.657 39.657 0 0 1 2.155-7.078zm26.422-32c33.234.154 50.625 37.387 32.824 62.838-21.181 29.862-65.38 18.062-72.019-14.838 64.354 2.441 59.058-6.544 11.042-36.383a39.865 39.865 0 0 1 28.153-11.617zm-55.419 32h-9.422a32.208 32.208 0 0 0 -10.081-16.267l6.025-12.05 18.349 12.233a55.556 55.556 0 0 0 -4.871 16.084zm-27.861-35.328-4.72 9.44v-11.012zm-36.393-29 5.015-20.061 16.874 8.437-5.676 17.029zm106.2-40.087 17.936-5.979-21.863 27.342-14.41-10.807 9.056-13.584a9.05 9.05 0 0 0 9.284 3.032zm-28.691-22.436 7.867 7.866-10.453 15.685c-3.784-3.588-38.78 13.814-42.886 14.534l-40.364-20.178v-7.456c43.445-5.023 30.646.661 56-24.291-2.571 31.166 11.813 18.803 29.839 13.844z"/></g></svg>